<?xml version="1.0" encoding="utf-8"?>
<!-- Generator: Adobe Illustrator 19.1.0, SVG Export Plug-In . SVG Version: 6.00 Build 0)  -->
<svg version="1.1" id="Calque_1" xmlns="http://www.w3.org/2000/svg" xmlns:xlink="http://www.w3.org/1999/xlink" x="0px" y="0px"
	 viewBox="0 0 927.9 115.3" style="enable-background:new 0 0 927.9 115.3;" xml:space="preserve">
<style type="text/css">
	.st0{fill:#FFD000;}
	.st1{fill:#D0470A;}
</style>
<g>
	<polygon class="st0" points="10.1,27 34.1,27 54.5,18.6 86.1,20.5 96.5,27.3 97.3,44.6 88.8,56.5 68.8,50.6 66.3,66.7 67.1,84.3 
		67.1,102 54.5,113 34.1,113 27.5,104.3 31.5,72.3 30.8,57 10.1,57 7.1,47 7.1,30 	"/>
	<polygon class="st0" points="105.6,17.5 126.8,18.7 135.7,33.2 146.8,18.7 156.8,11.7 166.1,22.4 175.5,30.1 172.6,41 160.6,51.8 
		151.1,62.3 151.1,81 150.8,98.4 140.5,105 125.1,105 121.5,94.7 120.8,68.8 111.5,50.6 102.8,43.1 97.3,30.1 	"/>
	<polygon class="st0" points="191.3,27.1 212.1,17.5 242.8,18.7 256.1,30.6 257.2,38 246.8,50.6 234.1,56.5 217.9,47 209.1,50.6 
		209.1,63 209.2,72.1 218,75.8 234.1,67.3 248.1,72.1 252.1,77.5 245.5,98.8 228.1,108 205.1,108 183.2,91.2 180.1,68.8 180.1,44 	
		"/>
	<polygon class="st0" points="529.1,20.5 546.1,17.4 560.5,24.4 563.1,42.3 563.1,96 563.1,108 532.1,108 522.2,91.2 527.5,23.3 	
		"/>
	<polygon class="st0" points="607.1,20.5 623.9,26.8 629.1,33.4 640.1,21 660.1,21 676.1,62.2 689,84.3 697.5,39.3 720.1,17 
		732.1,17 751.5,30.6 769.7,68.8 771.6,78.5 780.1,56.9 780.1,23 792.1,21 821.1,21 821.1,34 812.1,68.8 834.4,72.1 842.4,72.6 
		860.1,58.1 848.1,39.6 849.5,21.7 860.1,9.8 881.5,6.6 905.5,9.8 917.1,21.7 905.5,42.3 920.1,60.3 920.1,80 910.1,99 892.3,108 
		873.1,108 854.1,103.6 840.1,86.3 835.1,103.1 821.5,108 780.1,108 770.2,91.1 765.9,103 744.1,103 736.8,91.2 735.3,79.6 
		721.1,84 721.1,105 711.5,112.5 687.5,99.6 680.6,108 661.1,108 656.1,103.1 643.5,72.1 636.1,84 625.1,84 613,72.1 607.1,97.6 
		594.1,108 570.8,96.7 577.5,77.5 586.8,48.6 594.8,26.9 	"/>
	<path class="st0" d="M506.8,12l-19.3,6.7l-4,14.5l-14.7-14.5l-13.3-1.2l-9.7,3.5L440,51.8l-15.2-24.7L398.1,12l-31.3,8.6
		l-21.3,21.1L317.1,12h-22l-35,21v28l6.6,25.5l14.4,17.9l31.1,3.6l14.5-6.2L341.3,84l7.5-18.2l7.3,23.9l14.4,13.9l22.4,4.4l15.9-3
		l17.5-15.3l14.8-20.9l0.5,39.1l17.3,4.6l13.3-9l4-19.6l13.3,15l17.3,4.6l10-8l5.4-70.2L506.8,12z M312.1,76L295,75.8l-4.4-11.9
		l2.1-13.2l16.1-6.3l3.4,14V76z M398.1,76l-13.8-0.2L377.8,60l4.2-16h11.1l5,6.7l3.5,16.1L398.1,76z"/>
	<g>
		<path class="st1" d="M11.8,20.8l1.6-0.1h2.3c3.5,0.4,7,0.4,10.5,0c3.5-0.4,7-0.5,10.5-0.5c3.6-2.3,7.5-3.9,11.9-4.8
			c4.3-0.9,8.6-1.6,12.8-2.1c3.5-0.6,7.1-1.1,10.8-1.3c3.7-0.3,7.5-0.2,11.2,0.3c9.3,1.8,15.8,6.9,19.3,15.4
			c1.2,7.3,0.8,14.5-1.1,21.6c-2.7,6.6-6.7,10.3-12,11c-5.3,0.7-10.8-0.1-16.4-2.4c-0.1,2.4-0.3,5.1-0.6,8c-0.3,2.9-0.9,5.4-1.7,7.6
			l1.1,1.3l0.4,4c0,4.9,0.1,9.5,0.4,13.6s-0.9,8.5-3.6,13c-2.4,3.1-5,5.2-7.7,6.3c-2.7,1.1-5.9,1.8-9.5,2.3
			c-1.9,0.3-3.8,0.6-5.8,0.9c-2,0.4-4,0.5-5.8,0.5c-3.7-0.1-6.6-0.7-8.9-1.9c-2.2-1.2-4.5-3.2-6.8-6.1c-2.1-6.4-2.4-13.2-0.9-20.3
			c1.4-7.1,2.6-13.8,3.4-20.3c0.3-0.8,0.6-1.6,0.9-2.4c0.3-0.8,0.5-1.6,0.5-2.4c-3.4,0.8-7.1,1-11,0.7c-3.5-0.6-6.4-1.5-8.8-2.6
			c-2.4-1.1-4.6-3.3-6.6-6.5C0.9,50.2,0.4,46.7,0.2,43c-0.2-3.7-0.2-7.3,0.1-10.7C1.6,26.1,5.4,22.2,11.8,20.8z M11.5,48.2
			c0,1,0.7,1.7,2,2.3c1.3,0.5,2.6,0.9,3.6,1.1c3.6,0.9,7.3,0.7,11.2-0.7c3.9-1.3,7.5-1.7,10.7-1.2c1.6,0.3,1.9,2.1,0.7,5.4
			c-1.1,3.3-1.2,6.1-0.3,8.3c0.2,0.4,0.5,0.7,1,1c0.5,0.3,0.9,0.6,1.3,0.9c-0.7,0.6-1.6,1.2-2.6,1.7c-1,0.5-1.5,1.2-1.6,2
			C37,74,36.2,79.2,35,84.6c-1.2,5.4-1.6,10.9-1.2,16.3c0,1.6,1.2,2.7,3.6,3.3c2.4,0.6,4.4,0.6,6,0.1c2.4-0.6,5.1-1.1,8.2-1.3
			c3-0.2,5.4-0.9,7-2.1c2.8-2.1,4-5.4,3.6-9.7s-0.6-8.3-0.6-12.1c0-0.8-0.4-1.5-1.3-1.9c-0.9-0.5-1.5-1.1-2.1-1.8
			c0.5-1.4,1.2-2.9,1.9-4.3c0.7-1.4,1.2-2.9,1.5-4.4c0.9-7.3,1.3-14.3,1.1-21.2c0-0.8-0.3-1.6-0.9-2.5c-0.6-0.8-1-1.7-1.3-2.5
			c0.8,0.5,1.6,1.2,2.4,2.1c0.8,0.9,1.7,1.3,2.8,1.3c3.8,0.4,7.7,1.7,11.8,3.9c4.1,2.1,7.7,2.6,10.9,1.5c2.2-0.8,3.5-3.2,3.8-7.2
			c0.3-4,0.5-7.3,0.5-9.8c-0.1-2.1-1.2-4.1-3.3-5.8c-2.1-1.7-4.2-2.8-6.2-3.3c-4-0.8-8.1-0.9-12.3-0.3c-4.2,0.6-8.3,1.2-12.3,1.7
			c-2.8,0.4-5.7,1-8.7,1.5c-3,0.6-5.6,1.7-7.7,3.4c-1.2,0.9-1.6,2.2-1.3,4c0.3,1.7,0.4,3.3,0.3,4.8c-0.4-1.2-0.5-2.6-0.4-4.4
			c0.1-1.8-0.4-2.7-1.6-2.8c-3.8-0.2-7.7,0-11.7,0.5c-4.1,0.5-8.1,0.5-12-0.1c-0.7,0-1.6,0.1-2.6,0.3c-1,0.2-1.5,0.6-1.6,1.1
			c-0.5,2.7-0.6,5.2-0.3,7.7C11.2,43,11.4,45.5,11.5,48.2z M41.7,86.5c0,1.1,0.2,2.1,0.5,3.2c0.3,1,0.3,2-0.1,2.9
			c-0.4,0.8-1,1.4-1.9,1.7c-0.9,0.4-1.8,0.8-2.6,1.3C39.9,93.3,41.3,90.2,41.7,86.5z M50,47c0.7,0.4,1.5,0.7,2.5,0.9
			c0.9,0.2,1.5,0.7,1.8,1.4c0.3,1.1,0.2,2.3-0.2,3.6c-0.4,1.3-0.6,2.5-0.6,3.7C53.2,52.9,52.1,49.8,50,47z"/>
		<path class="st1" d="M110,55.6c-0.3-0.3-0.6-0.7-1.1-1.4c-0.4-0.7-0.8-1.2-0.9-1.7c-4.6-1.4-8.1-4-10.7-7.9
			c-2.6-3.8-3.2-8.2-1.9-13.1c0-0.6,0.1-1.3,0.4-2.1c0.3-0.8,0.5-1.5,0.7-2.1c1.4-3.6,3-6.7,4.8-9.5c1.8-2.7,4.7-4.9,8.6-6.5
			c5.4-1.1,10.4-0.1,15,2.8c4.7,3,8.5,6.5,11.5,10.6c1.5-2.4,3.2-4.7,4.9-6.9c1.7-2.2,3.7-4.2,5.8-6.1c5.5-4.3,11.4-4.7,17.6-1.3
			c3.4,2.4,5.7,5.4,7,9c0.4,0.2,1.1,0.6,1.9,1.2c0.8,0.6,1.4,1.1,1.9,1.3c2.2,2.3,3.6,4.5,4.1,6.4c0.5,2,0.6,4.5,0.3,7.7l-1.9,3.1
			l-1.7,2.8c-1.7,2.1-3.6,3.9-5.6,5.6c-2,1.7-3.8,3.5-5.4,5.4c-1.6,2.1-3.6,4.3-5.8,6.6c-2.3,2.4-3.4,4.9-3.4,7.6
			c-0.3,3.1-0.1,6.4,0.4,9.9c0.5,3.4,0.5,6.6-0.1,9.5l0.1,0.4l0.7,2.1c0.7,3.3,0.8,6.2,0.4,8.6c-0.4,2.4-1.5,5.1-3.1,8.1
			c-4.5,3.3-9.7,5.5-15.8,6.5c-6,1-11.5-0.2-16.3-3.6c-4.1-3.2-6.6-7.1-7.3-11.6c-0.8-4.5-0.9-9.2-0.3-14c0.4-1.9,0.7-3.2,0.7-3.9
			c0-0.7-0.1-2-0.4-3.9c-0.1-1-0.2-3.1-0.3-6.4c-0.1-3.3,0.1-5.2,0.7-5.8C113.7,60.5,111.9,58,110,55.6z M123.9,56.1
			c1.6,2.4,2.5,4.1,2.6,5.1c0.1,1,0,2.1-0.3,3.2c-0.3,1.2-0.6,2.9-0.7,5.1c-0.2,2.2,0.3,5.8,1.5,10.7c0.1,0.6,0.6,1.2,1.4,1.8
			c0.8,0.6,1.6,1.1,2.2,1.7c-0.9,0.3-2,0.3-3.2,0.1c-1.3-0.2-1.9,0.1-1.9,0.9c-0.3,2.5-0.3,5.3-0.1,8.4c0.2,3.1,1.4,5.3,3.6,6.6
			c2.1,1.6,4.8,2.2,8.1,1.7c3.2-0.5,6.1-1.4,8.6-2.8c1.1-0.5,1.6-1.7,1.5-3.5c0-1.8-0.2-3.3-0.6-4.4c-0.4-1.1-1.2-1.8-2.4-2.3
			c-1.3-0.4-2.3-1-3.1-1.7c0.7-0.1,1.6,0,2.7,0.2c1.1,0.2,1.7,0,1.9-0.7c0.7-3.8,0.7-7.9-0.1-12.1c-0.8-4.2-0.6-8.2,0.5-12.1
			c0.8-3,2.3-5.9,4.6-8.5c2.2-2.6,4.4-5.1,6.4-7.7c1.9-2.3,4.1-4.5,6.7-6.4c2.6-2,4.6-4.3,5.9-7.1c0.3-0.7-0.1-1.5-1.2-2.4
			c-1.1-0.9-2-1.4-2.8-1.6c-1.3-0.1-2.5,0.2-3.8,0.7c-1.3,0.6-2.5,1-3.8,1.3c0.5-1.3,1.3-2.6,2.3-3.9c1-1.3,1.4-2.7,1.1-4
			c-0.3-1.1-1.1-2.1-2.6-3c-1.4-0.9-2.6-1.1-3.5-0.6c-3.6,2.4-7,6.4-10.1,11.8c-3.2,5.5-5.6,9.4-7.3,11.8c-2.4-1.2-5-3.9-7.8-8.2
			c-2.8-4.3-5.6-7.4-8.3-9.4c-1.1-0.8-2.3-1.6-3.8-2.3c-1.5-0.8-2.9-1.1-4.2-1.1c-1.1,0-2.1,0.5-3,1.5c-0.9,1-1.6,2-2,3
			c-0.9,1.6-1.7,3.4-2.4,5.4c-0.7,2-0.9,3.8-0.7,5.6c0.1,1.3,0.7,2.3,1.8,3.3c1.1,0.9,2.2,1.5,3.3,1.8s2.2,0.1,3.4-0.4
			c1.2-0.5,2.4-0.9,3.6-1.2c-0.4,0.5-1,1.1-1.7,1.7c-0.7,0.6-1,1.1-0.8,1.4c1.1,2.2,2.4,4.4,4,6.4C120.9,52.1,122.4,54.1,123.9,56.1
			z M139.8,50.6c-2.2,6-3.1,11.4-2.6,16.1c-0.3-1.5-0.7-3-1.1-4.5c-0.5-1.5-0.6-3-0.3-4.6c0.2-1.3,0.7-2.4,1.6-3.6
			C138.3,52.9,139.1,51.8,139.8,50.6z"/>
		<path class="st1" d="M238.2,60.7c-3.7-0.2-6.7-0.9-9.2-2.1c-2.5-1.2-5-3-7.7-5.4l-0.8-0.5c-2.8,0.8-5.1,1.2-7.1,1.2
			c-1,1.9-1.6,3.8-1.9,5.8c-0.2,0.6,0.2,2.4,1.1,5.3c0.9,2.9,1.5,4.4,1.7,4.4c1.7,1.3,3,2,3.8,2.2c0.8,0.2,2.3,0.1,4.4-0.3
			c2.3-3.2,4.7-5.6,7.2-7.2c2.5-1.6,5.9-2,10.2-1.4c4.2,1.3,7.2,3.4,9,6c8.7,3.8,11.5,9.8,8.5,18.3c-1.6,4.3-3.5,8.4-5.6,12.2
			c-2.1,3.8-5.2,7-9.2,9.4c-6.4,3.5-13.6,5.2-21.6,5.1c-8-0.1-15.4-1.2-22.2-3.4c-2.7-1.3-5.2-2.9-7.6-4.7c-2.4-1.8-4.4-4-6-6.7
			c-1.4-1.9-2.9-3.8-4.4-5.7c-1.5-1.9-2.7-4-3.6-6.1c-5.3-12.3-6.3-25.6-3-40c1.2-4.1,2.5-8.1,4-11.9c1.5-3.8,3.6-7.5,6.3-11
			c5.3-6.2,12.5-10.1,21.7-11.7c9.2-1.7,17.7-2.3,25.4-2.1c5.1,0.6,9.6,1.7,13.6,3.1c6.1,2.9,11.1,7.6,15.2,14.2
			c4,6.6,3.2,13-2.6,19.1l-2.4,2.1l-1.7,0.8c-1.6,3.7-3.7,6.3-6.3,7.9C245,59.1,241.9,60.1,238.2,60.7z M251.9,34.5
			c-1.6-5.2-5.2-8.9-10.7-11.3c-3.2-1.3-6.6-2.1-10.2-2.2c-3.6-0.1-7.1-0.1-10.5,0.1c-3.8,0.3-7.5,0.8-11.3,1.7
			c-3.8,0.9-7.4,2.1-10.7,3.8c-4,2-7.1,5.4-9.1,10.3c-1.8,4.2-3.3,8.5-4.4,13c-1.2,4.4-1.7,8.8-1.7,13.2c0,8.1,1.8,15.5,5.4,22.2
			c0.4,0.8,1.2,0.9,2.5,0.2c1.3-0.7,2.4-1.2,3.3-1.5c-0.6,0.8-1.3,1.8-1.9,3c-0.6,1.2-0.7,2.1-0.1,2.8c1.6,2.8,3.4,5.1,5.2,7.1
			c1.9,2,4.4,3.4,7.5,4.2c5,1.3,10.3,1.9,15.8,1.9c5.5,0,10.6-1,15.4-3.2c3.2-1.4,5.6-4,7.2-7.6c1.6-3.6,3-7.1,4.4-10.4
			c0.3-0.6,0-1.3-0.9-2c-0.9-0.7-1.6-1.1-2.3-1.2c-1.1-0.1-2.1,0.2-3,0.7c-0.9,0.6-1.9,1-2.9,1.3c0.4-0.6,0.9-1.3,1.7-1.9
			c0.8-0.7,1.1-1.4,0.8-2.1c-0.4-1-1.1-1.9-2.2-2.7c-1.1-0.8-2.2-1.1-3.2-0.8c-1.7,0.5-3,1.7-4,3.6c-1,1.9-2.3,3.2-3.9,3.9
			c-3.6,1.7-7.7,2.3-12.5,1.7c-1.6-0.3-3.2-1.1-4.8-2.5c-1.6-1.4-3.1-2.3-4.6-2.9c-0.6-0.3-1.3-0.2-2.1,0.2
			c-0.8,0.4-1.3,0.3-1.3-0.2c-0.2-0.8,0-1.5,0.5-2.2c0.5-0.7,0.8-1.5,0.7-2.5c-0.3-1.9-0.9-3.8-1.9-5.8c-1-2-1.4-3.9-1.3-5.8
			c0.3-6.4,2.4-11.7,6.3-15.8c1.3-1.3,3-1.9,5.3-1.7c2.3,0.2,4.2-0.2,5.8-1.3c0.6-0.3,1-0.9,1.1-1.8c0.1-0.9,0.3-1.8,0.5-2.6
			c0.5,0.5,1.2,1.3,2,2.1c0.8,0.9,1.5,1.5,2.1,1.9c2.4,1.6,4.7,3.4,6.8,5.4c2.1,2,4.6,3,7.2,3c1.3,0,2.7-0.5,4.1-1.5
			c1.4-1,2.1-2.3,2.1-3.9c-0.1-1.7-0.9-3.2-2.6-4.4c-1.6-1.3-3.1-2.4-4.4-3.5c1.6,0.7,3.4,1.6,5.2,2.6c1.9,1,3.7,1.4,5.5,1.1
			c1.3-0.1,2.3-0.8,3.3-2C252,37,252.3,35.8,251.9,34.5z M217.6,29.8c0,0.1,0.1,0.8,0.4,2.1c-0.7-0.2-1.4-0.3-2.1-0.5
			s-1.2-0.4-1.7-0.7c-2.8-2.1-5.2-2.6-7.3-1.2c-2.1,1.3-4.2,2.6-6.4,3.6c2-1.3,3.9-2.7,5.7-4.3c1.8-1.6,4.2-2.1,7.2-1.6
			C214.5,27.5,215.9,28.4,217.6,29.8z M234.1,84.7c-1.9,1.6-3.6,3.4-5.2,5.5c-1.6,2.1-3.6,3.4-5.9,4.2c-1.8,0.5-3.6,0.3-5.4-0.7
			c-1.8-1-3.6-1.7-5.4-2.3c1.9-0.2,3.8-0.3,5.8-0.3c2,0,3.9-0.4,5.8-1c1.9-0.5,3.6-1.3,5.3-2.3C230.7,86.7,232.4,85.7,234.1,84.7z"
			/>
		<path class="st1" d="M256.3,64.6c0-4.4,0-8.8-0.1-13.3c-0.1-4.5,0.3-8.9,1.1-13.3c1.1-5.7,3.7-10.7,7.9-14.8
			c4.2-4.2,8.7-7.7,13.6-10.7c7.3-4.1,14.8-5.6,22.4-4.4c2.3-1,5.5-1.5,9.4-1.5c6.6,0.6,12.7,3.3,18.1,7.9c5.5,4.7,10.1,9.5,14,14.5
			c3.2,4.8,5,9.8,5.2,14.8c0.1,1.3,0.2,2.2,0.3,2.6c0.1,0.4,0.6,1.2,1.3,2.3c2.1,4.7,3,10.1,2.6,16c-0.4,6-1.6,11.3-3.4,15.9
			c-1.5,3.1-3.3,6.2-5.4,9.3c-2,3-4.2,5.6-6.6,8c-2.4,2.4-4.8,4.7-7.2,7c-1.2,2-2.5,3.7-3.9,5.1c-1.4,1.4-3.3,2.3-5.5,2.6
			c-6.8,1.8-13.5,2.7-20,2.7c-10.2-1.3-19.3-4.7-27.3-10c-8-5.3-12.6-13.5-14-24.6c-0.1-0.9-0.4-1.9-0.9-3s-0.9-2.1-1.2-3.2
			c-0.3-1.6-0.4-3.3-0.4-5C256.3,67.8,256.3,66.2,256.3,64.6z M319.5,100c-0.1-0.7-0.4-1.4-1.1-1.9c-0.6-0.6-1.2-1.2-1.6-1.9
			c0.8,0.3,1.7,0.7,2.6,1.3c0.9,0.6,1.7,0.6,2.4,0.1c3-2.6,6-5.5,8.8-8.7c2.8-3.2,5.2-6.6,7.2-10.3c1.3-2.5,2.2-5.3,2.7-8.3
			c0.4-3,0.7-6,0.8-8.9c0-1.6-0.2-3.3-0.5-5.1c-0.4-1.8-1.1-3.3-2.3-4.6c-0.6-0.6-1.4-0.6-2.4,0.2c-1,0.8-1.9,1.3-2.7,1.5
			c0.5-1,1.3-2,2.3-3c1-1,1.5-2.1,1.5-3.4c0.1-4.7-1-8.6-3.4-11.8c-2.4-3.1-5.1-6.1-8-9c-2.9-2.9-6.1-5.2-9.5-7.1
			c-1.9-1-4-1.6-6.4-1.7c-2.4-0.2-4.5,0.2-6.2,1.2c-1.3,0.8-1.9,2.1-1.7,4c0.2,1.9,0.1,3.6-0.1,5.1c-0.4-1.5-0.5-3.3-0.3-5.4
			c0.3-2.1-0.4-3.3-1.9-3.7c-3.1-0.5-6.4-0.3-9.8,0.7c-3.4,1-6.3,2.5-8.7,4.4c-2.4,1.8-5,4-7.9,6.6c-2.8,2.6-4.5,5.3-5.2,8.1
			c-1.1,4.6-1.5,9.4-1.3,14.6c0.2,5.2,0.3,10.2,0.3,15c0,0.9,0,2-0.1,3.4c0,1.3,0.4,2.2,1.3,2.6c0.6,0.4,2.1,0,4.3-1.2
			c2.2-1.2,3.6-2.1,4-2.8c-0.3,1.5-1.6,3-3.9,4.5c-2.3,1.5-3.4,2.9-3.4,4.2c0.2,2.6,0.9,5.4,2.1,8.3c1.2,3,2.8,5.3,4.6,7.1
			c2.8,3,6.2,5.2,10.1,6.7c4,1.5,7.9,2.6,11.9,3.4c3.2,0.7,6.5,0.7,9.8,0c3.3-0.7,6.6-1.4,9.8-2C319.1,102,319.7,101.3,319.5,100z
			 M301.7,32.2c0.9,0.8,1.6,1.8,2.2,3.1c0.6,1.3,1.4,2.1,2.3,2.6c1.4,0.7,2.7,1.6,3.8,2.7c1.1,1.1,2.3,2,3.7,2.8c1.5,1,2.6,3,3.1,6
			c0.4,3,0.7,6.1,0.8,9.4c0.1,3.3,1.6,4.9,4.6,4.7c0.4,0,1.3-0.7,2.6-2c1.3-1.3,1.9-1.7,1.9-1.1c-2.9,1.9-5.1,4.3-6.6,7.2
			c-1.5,2.9-2.3,5-2.4,6.4c-0.2,3-1.9,4.8-5,5.6c-3.2,0.8-6,2-8.5,3.5c-2.1,1.3-4.3,1.1-6.5-0.6c-2.2-1.7-4.2-3.6-6-5.4
			c-1.9-1.9-3.1-4.1-3.8-6.6c-0.6-2.6-1.7-4.9-3.4-6.9c-0.5-0.6-1.2-0.3-2,1c-0.8,1.3-1.6,2.1-2.4,2.5c1.4-2.1,2.6-4.7,3.5-7.5
			c0.8-3,1.5-5.8,2.1-8.5c0.6-2.7,1.9-5.4,3.8-8c1.2-1.6,2.7-2.6,4.6-2.9c1.9-0.3,3.7-0.9,5.4-1.8c0.6-0.3,1.1-1.1,1.3-2.6
			C301.1,34.3,301.4,33.1,301.7,32.2z M292.7,26.9c-4.6,1.1-8.4,3.6-11.5,7.5c0.5-1,1-2.1,1.4-3.3c0.4-1.2,1.1-2.1,2.1-2.8
			c1.1-0.7,2.3-1.1,3.8-1.1C289.9,27.3,291.3,27.1,292.7,26.9z M312.3,93.2c-4-0.5-8-0.8-11.9-0.9c-3.9-0.1-7.8-0.1-11.7,0
			c2.9-0.2,5.7-0.4,8.5-0.7s5.7-0.4,8.5-0.4c1.1,0.1,2.2,0.4,3.3,0.9C310.1,92.5,311.2,92.9,312.3,93.2z M306.9,60.5
			c-0.3-1.5-0.4-3.1-0.5-4.6c0-1.6-0.2-3.2-0.3-4.8c-1.5-1.3-2.6-2.1-3.1-2.6c-0.9,0.4-1.8,0.7-2.8,0.9s-1.8,0.5-2.6,0.8
			c-0.8,1.3-1.4,2.8-1.7,4.5c-0.4,1.7-0.7,3.2-0.9,4.5c0.3,0.7,0.6,1.4,1,2.1c0.4,0.7,0.7,1.4,1,2.1c0.8,2.3,1.5,4,1.9,5
			c0.5,1,1.5,2.2,3.2,3.6c0.8-0.3,1.7-0.6,2.7-0.9c1-0.4,1.9-0.8,2.8-1.2c0.2-0.5,0.4-1.1,0.5-1.8c0.2-0.7,0.4-1.3,0.7-1.8
			C308.2,65,307.5,63.1,306.9,60.5z"/>
		<path class="st1" d="M345.6,64.6c0-4.4,0-8.8-0.1-13.3c-0.1-4.5,0.3-8.9,1.1-13.3c1.1-5.7,3.7-10.7,7.9-14.8
			c4.2-4.2,8.7-7.7,13.6-10.7c7.3-4.1,14.8-5.6,22.4-4.4c2.3-1,5.5-1.5,9.4-1.5c6.6,0.6,12.7,3.3,18.1,7.9c5.5,4.7,10.1,9.5,14,14.5
			c3.2,4.8,5,9.8,5.2,14.8c0.1,1.3,0.2,2.2,0.3,2.6c0.1,0.4,0.6,1.2,1.3,2.3c2.1,4.7,3,10.1,2.6,16c-0.4,6-1.6,11.3-3.4,15.9
			c-1.5,3.1-3.3,6.2-5.4,9.3c-2,3-4.2,5.6-6.6,8c-2.4,2.4-4.8,4.7-7.2,7c-1.2,2-2.5,3.7-3.9,5.1c-1.4,1.4-3.3,2.3-5.5,2.6
			c-6.8,1.8-13.5,2.7-20,2.7c-10.2-1.3-19.3-4.7-27.3-10c-8-5.3-12.6-13.5-14-24.6c-0.1-0.9-0.4-1.9-0.9-3s-0.9-2.1-1.2-3.2
			c-0.3-1.6-0.4-3.3-0.4-5C345.6,67.8,345.6,66.2,345.6,64.6z M408.9,100c-0.1-0.7-0.4-1.4-1.1-1.9c-0.6-0.6-1.2-1.2-1.6-1.9
			c0.8,0.3,1.7,0.7,2.6,1.3c0.9,0.6,1.7,0.6,2.4,0.1c3-2.6,6-5.5,8.8-8.7c2.8-3.2,5.2-6.6,7.2-10.3c1.3-2.5,2.2-5.3,2.7-8.3
			c0.4-3,0.7-6,0.8-8.9c0-1.6-0.2-3.3-0.5-5.1c-0.4-1.8-1.1-3.3-2.3-4.6c-0.6-0.6-1.4-0.6-2.4,0.2c-1,0.8-1.9,1.3-2.7,1.5
			c0.5-1,1.3-2,2.3-3c1-1,1.5-2.1,1.5-3.4c0.1-4.7-1-8.6-3.4-11.8c-2.4-3.1-5.1-6.1-8-9c-2.9-2.9-6.1-5.2-9.5-7.1
			c-1.9-1-4-1.6-6.4-1.7c-2.4-0.2-4.5,0.2-6.2,1.2c-1.3,0.8-1.9,2.1-1.7,4c0.2,1.9,0.1,3.6-0.1,5.1c-0.4-1.5-0.5-3.3-0.3-5.4
			c0.3-2.1-0.4-3.3-1.9-3.7c-3.1-0.5-6.4-0.3-9.8,0.7c-3.4,1-6.3,2.5-8.7,4.4c-2.4,1.8-5,4-7.9,6.6c-2.8,2.6-4.5,5.3-5.2,8.1
			c-1.1,4.6-1.5,9.4-1.3,14.6c0.2,5.2,0.3,10.2,0.3,15c0,0.9,0,2-0.1,3.4c0,1.3,0.4,2.2,1.3,2.6c0.6,0.4,2.1,0,4.3-1.2
			c2.2-1.2,3.6-2.1,4-2.8c-0.3,1.5-1.6,3-3.9,4.5c-2.3,1.5-3.4,2.9-3.4,4.2c0.2,2.6,0.9,5.4,2.1,8.3c1.2,3,2.8,5.3,4.6,7.1
			c2.8,3,6.2,5.2,10.1,6.7c4,1.5,7.9,2.6,11.9,3.4c3.2,0.7,6.5,0.7,9.8,0c3.3-0.7,6.6-1.4,9.8-2C408.5,102,409,101.3,408.9,100z
			 M391,32.2c0.9,0.8,1.6,1.8,2.2,3.1c0.6,1.3,1.4,2.1,2.3,2.6c1.4,0.7,2.7,1.6,3.8,2.7c1.1,1.1,2.3,2,3.7,2.8c1.5,1,2.6,3,3.1,6
			c0.4,3,0.7,6.1,0.8,9.4c0.1,3.3,1.6,4.9,4.6,4.7c0.4,0,1.3-0.7,2.6-2c1.3-1.3,1.9-1.7,1.9-1.1c-2.9,1.9-5.1,4.3-6.6,7.2
			c-1.5,2.9-2.3,5-2.4,6.4c-0.2,3-1.9,4.8-5,5.6c-3.2,0.8-6,2-8.5,3.5c-2.1,1.3-4.3,1.1-6.5-0.6c-2.2-1.7-4.2-3.6-6-5.4
			c-1.9-1.9-3.1-4.1-3.8-6.6c-0.6-2.6-1.7-4.9-3.4-6.9c-0.5-0.6-1.2-0.3-2,1c-0.8,1.3-1.6,2.1-2.4,2.5c1.4-2.1,2.6-4.7,3.5-7.5
			c0.8-3,1.5-5.8,2.1-8.5c0.6-2.7,1.9-5.4,3.8-8c1.2-1.6,2.7-2.6,4.6-2.9c1.9-0.3,3.7-0.9,5.4-1.8c0.6-0.3,1.1-1.1,1.3-2.6
			C390.5,34.3,390.7,33.1,391,32.2z M382,26.9c-4.6,1.1-8.4,3.6-11.5,7.5c0.5-1,1-2.1,1.4-3.3c0.4-1.2,1.1-2.1,2.1-2.8
			c1.1-0.7,2.3-1.1,3.8-1.1C379.3,27.3,380.7,27.1,382,26.9z M401.6,93.2c-4-0.5-8-0.8-11.9-0.9c-3.9-0.1-7.8-0.1-11.7,0
			c2.9-0.2,5.7-0.4,8.5-0.7s5.7-0.4,8.5-0.4c1.1,0.1,2.2,0.4,3.3,0.9C399.4,92.5,400.5,92.9,401.6,93.2z M396.2,60.5
			c-0.3-1.5-0.4-3.1-0.5-4.6c0-1.6-0.2-3.2-0.3-4.8c-1.5-1.3-2.6-2.1-3.1-2.6c-0.9,0.4-1.8,0.7-2.8,0.9s-1.8,0.5-2.6,0.8
			c-0.8,1.3-1.4,2.8-1.7,4.5c-0.4,1.7-0.7,3.2-0.9,4.5c0.3,0.7,0.6,1.4,1,2.1c0.4,0.7,0.7,1.4,1,2.1c0.8,2.3,1.5,4,1.9,5
			c0.5,1,1.5,2.2,3.2,3.6c0.8-0.3,1.7-0.6,2.7-0.9c1-0.4,1.9-0.8,2.8-1.2c0.2-0.5,0.4-1.1,0.5-1.8c0.2-0.7,0.4-1.3,0.7-1.8
			C397.5,65,396.9,63.1,396.2,60.5z"/>
		<path class="st1" d="M466.5,114.2c-2.1,0.4-4.1,0.7-5.8,0.7c-1.7,0-3.6-0.4-5.8-1.3c-1.3,0.8-3.1,0.9-5.2,0.4s-3.9-1-5.2-1.5
			c-2.7-2.1-4.6-4.3-5.6-6.4c-1.1-2.1-1.9-4.8-2.4-8.1c-0.7-5.3-1.2-10.6-1.3-15.9c-0.2-5.3,0.4-10.6,1.7-15.9
			c-1.1-6.1-1.4-12.2-1.1-18.5c0.4-6.2,1-12.4,1.9-18.6c0.3-5.1,1.7-9.3,4.3-12.5c2.3-2.6,4.8-4.3,7.3-5.1c2.6-0.8,5.6-1.2,9.1-1.2
			c0.5,0.2,1.4,0.4,2.6,0.7c1.2,0.3,2.1,0.4,2.8,0.3l3.9,0.4l3.1,1.2c2.4,1.7,4.4,3.6,6,5.8s3.2,4.4,4.8,6.7c0-3,0.5-5.5,1.5-7.3
			c1-1.8,2.7-3.7,5.1-5.6c2.8-1.1,5.9-1.9,9.3-2.6c3.4-0.6,6.6-0.3,9.3,1.1c3.3-0.8,6.4-0.1,9.1,2.1c2.8,2.2,4.8,4.7,6.2,7.5
			c1.1,3.6,1.7,7.5,1.9,11.9c0.2,4.3,0.4,8.4,0.5,12.1c0,8.1,0.1,16.2,0.3,24.5c0.2,8.3-0.2,16.4-1.1,24.5c-1.1,6.4-4,11-8.7,13.7
			c-4.7,2.7-10.1,2.6-16.2-0.1c-4,0-7.5-1.2-10.4-3.6c-2.9-2.4-5.2-5.3-6.8-8.7l-0.1,1.1l-0.3,2.1c-0.5,4.8-2.1,8.4-4.6,10.7
			C474.2,111.1,470.8,112.9,466.5,114.2z M447.4,68.6c-1.3,4.2-1.9,8.6-1.6,13.2c0.3,4.6,0.6,9.1,1.1,13.5c0.1,1.4,0.4,3.1,0.9,4.9
			c0.5,1.8,1.6,2.8,3.1,3c1.3,0.3,2.4-0.4,3.3-2.1c0.8-1.7,1.6-3.1,2.2-4.4c0.3-0.7,0.4-1.5,0.3-2.4c0-0.9,0-1.7,0.1-2.6
			c0.3,1.9,0.4,3.9,0.3,6c0,2.1,0.5,3.9,1.7,5.4c0.6,0.9,1.6,1.2,3,1c1.3-0.2,2.5-0.6,3.5-1c1.1-0.3,2.1-0.8,3.2-1.6
			s1.7-1.7,1.9-2.8c0.6-5,0.8-10.1,0.6-15.2c-0.2-5.1-0.6-10.2-1.1-15.3c-0.1-0.7-0.6-1.3-1.4-1.6c-0.9-0.4-1.5-0.8-2.1-1.3
			c0.7-0.3,1.5-0.4,2.5-0.4c0.9,0,1.6-0.4,1.9-1.2c0.5-0.9,0.7-1.9,0.4-3.1c-0.3-1.2-0.4-2.3-0.4-3.4c2.7,4.1,5.3,8.2,8,12.3
			c2.6,4.1,5.3,8.1,8,12.1c1.2,2,2.2,4,3.2,6.2c1,2.1,2.2,4.1,3.8,5.9c0.6,0.7,1.5,1.5,2.6,2.2c1.1,0.8,2.1,0.8,2.9,0.2
			c0.9-0.6,1.2-1.7,1-3.1c-0.2-1.4-0.2-2.7,0.1-3.9c0.3,1.3,0.4,2.7,0.4,4.2c0,1.4,0.5,2.6,1.5,3.4c1,0.8,2.3,1.4,3.9,1.7
			c1.6,0.3,3,0.1,4.2-0.7c1.1-0.7,1.8-1.9,2.2-3.5c0.4-1.6,0.6-3.1,0.7-4.4c0.4-5.9,0.6-11.9,0.6-17.9c0-6-0.1-12-0.1-18.1
			c-0.1-4.7-0.2-9.5-0.3-14.2c-0.1-4.7-0.5-9.5-1.2-14.2c-0.2-0.8-0.7-1.7-1.6-2.6c-0.9-0.9-1.7-1.3-2.4-1c-1.2,0.6-1.8,1.7-2,3.2
			c-0.2,1.5-0.5,2.8-0.9,4c-0.4-1.3-0.5-2.6-0.5-4.2c0-1.5-0.5-2.6-1.5-3.4c-1.3-0.8-2.8-1-4.5-0.6c-1.7,0.4-3.2,0.7-4.5,1
			c-1.3,0.4-2,1.1-2,2c0,5.7,0.1,11.4,0.4,17.1c0.3,5.7,0.8,11.3,1.6,17c0.2,1.3,0.7,2.6,1.5,3.6c0.8,1.1,1.7,2.1,2.5,3.2
			c-1.1-0.5-2.2-1.1-3.3-1.6c-1.1-0.5-2-1.3-2.8-2.3c-2.7-3.7-5-7.6-7-11.9c-2-4.3-4.4-8.1-7.4-11.6c-0.6-0.5-1.3-0.2-1.9,0.9
			c-0.6,1.2-1.2,2-1.7,2.6c0.1-0.7,0.3-1.5,0.5-2.2c0.3-0.8,0.3-1.5,0-2.3c-0.6-1.6-1.5-3.2-2.5-4.8c-1-1.6-2-3.1-3-4.6
			c-0.6-0.8-1.3-1.7-2-2.6c-0.7-0.9-1.5-1.5-2.4-1.8c-0.8-0.3-1.6-0.1-2.5,0.6c-0.9,0.7-1.7,0.9-2.5,0.7c-0.5,0-0.8-0.4-0.9-1.1
			c0-0.8-0.2-1.2-0.6-1.3c-3-0.4-5.3-0.1-7.1,1.1c-1.9,1.3-2.9,3.2-3,5.9c-0.5,6-1.1,12-1.8,18.1c-0.7,6.1-0.4,12,0.9,17.9
			c0.3,1.4,1.4,2,3.5,1.7c2.1-0.3,3.9-0.4,5.5-0.2c-1.6,0.5-3.4,0.8-5.4,0.7C449,66.5,447.8,67.2,447.4,68.6z M502.4,67.3
			c0.7,0.7,1.6,1.4,2.8,1.9c1.1,0.6,1.7,1.3,1.7,2.1c0,1.1-0.7,2.2-1.9,3.5c-1.3,1.3-2.2,2.4-2.8,3.5c-0.4,0.8-0.6,1.8-0.6,3.1
			c0,1.3-0.3,2.2-0.9,3c0.1-0.9,0-2.1-0.3-3.6c-0.3-1.5-0.4-2.6-0.3-3.4c0-0.5,0.7-1.4,2-2.6c1.3-1.2,2-2.2,2-3
			c0-1.1-0.2-1.8-0.7-2.2C502.9,69.1,502.5,68.3,502.4,67.3z"/>
		<path class="st1" d="M566.4,111.3l-4.4,2.1c-3.5,0.4-7.3,0.7-11.5,0.9c-4.2,0.2-7.9-0.3-11.1-1.7l-0.1,0.1l-3.2,0.1
			c-4.6-0.5-8.1-1.9-10.6-4.2c-2.5-2.2-3.8-5.8-4-10.6c-0.4-5.7-0.3-11.5,0.1-17.5c0.4-5.9,1-11.7,1.7-17.5c0.4-1.3,0.5-3.1,0.1-5.4
			c-0.4-2.2-0.5-4.2-0.5-5.8c-1-8.9-1.1-17.8-0.4-26.7c1-5.6,4.2-9.8,9.7-12.6c3.6-1.3,7.7-2,12.4-2.1c4.7,0,8.7,1.1,12,3.3
			c6.4,1.6,10.4,5.8,12.2,12.5c0.4,4.8,0.2,10.3-0.7,16.4l1.2,10.6c0,1.1,0,2.1-0.1,3.2c0,1.1-0.1,2.1-0.1,3.2
			c0,6.2,0.3,12.3,0.8,18.4c0.5,6.1,0.9,12.2,1.1,18.4c0.2,3.2,0,5.8-0.7,7.9C569.5,106.5,568.3,108.8,566.4,111.3z M533,26.7
			c-0.4,5.5-0.5,10.9-0.2,16.4c0.3,5.5,0.7,10.9,1.3,16.2c0.1,1,0.5,1.9,1.3,2.7c0.8,0.8,1.4,1.6,1.9,2.4c-0.6,0.3-1.4,0.4-2.3,0.4
			c-0.9,0-1.3,0.3-1.3,0.8c-0.8,5.6-1.3,11.3-1.6,17c-0.3,5.7-0.2,11.4,0.1,17.1c0,0.6,0.6,1.3,1.9,2c1.3,0.7,2.9,0.7,4.8-0.1
			c1.2-0.7,1.7-1.8,1.5-3.3c-0.1-1.5,0-2.8,0.5-4.1c0.2-1,0.3-2.1,0.5-3.3c0.1-1.2,0.3-2.4,0.6-3.6c0.4,1.6,0.6,3.2,0.8,4.6
			c0.2,1.5,0.5,3,0.9,4.5c0.2,0.9-0.1,2-0.9,3.4c-0.8,1.4-0.8,2.3,0,2.6c1.9,0.8,4.5,1.1,7.9,0.9c3.4-0.2,6.2-0.4,8.3-0.7
			c0.4,0,0.6-0.4,0.9-1.3c0.2-0.9,0.3-1.6,0.3-2.1c-0.4-6-0.7-12-1-18.1c-0.3-6.1-0.6-12.1-0.9-18c-0.1-1.2-0.2-2.6-0.2-4.2
			c0-1.6,0-3.4,0.2-5.2c-1.3,1.1-2.5,1.9-3.6,2.3c-1,0.5-1.7,1-2.1,1.5c0.2-1.3,0.7-2.3,1.6-3.3c0.9-0.9,1.4-1.9,1.5-3
			c0.3-3.8,0.8-7.6,1.5-11.5c0.8-3.9,1-7.8,0.6-11.5c-0.2-1.1-0.8-2-1.9-2.8c-1.1-0.8-2.2-1.2-3.3-1.2c-0.8,0.1-1.2,0.7-1.2,1.7
			s-0.1,2-0.4,2.7c-0.3-1.1-0.4-2.3-0.3-3.6c0.1-1.3-0.3-2.2-1.2-2.7c-2-0.8-4.1-1.1-6.4-1s-4.4,0.5-6.4,1
			C534.3,23.1,533,24.6,533,26.7z M547.9,60.1c0,2.7,0.1,5.4,0.4,8.3c0.3,2.8,0.9,5.8,2,9.1c-0.8-1.9-1.7-3.8-2.6-5.6
			c-0.9-1.9-1.5-3.8-1.7-5.8c-0.2-1.1,0-2.1,0.6-3C547.2,62.1,547.6,61.1,547.9,60.1z"/>
		<path class="st1" d="M591.8,114.2c-3.9-0.4-7.4-1.6-10.3-3.6c-4.6,0-8.1-1.8-10.7-5.4c-2.6-3.6-3.9-7.5-3.9-11.5
			c0.3-2.1,0.6-4.1,0.9-6c0.4-2,0.7-4,1.1-6c1.3-4.5,2.7-9.4,4.4-14.6c1.7-5.3,4-9.7,7-13.3l0.3-0.9l2-8.3l1.1-4.4
			c1.4-4.6,3.4-9.4,6-14.6c2.6-5.2,6.2-8.7,11.1-10.6c5.1-1.5,10.4-1.5,16,0.1c5.5,1.6,9.8,4.7,12.8,9.5l0.8-1.6l1.1-1.6
			c1.9-2.5,4.6-4.3,8.1-5.5c3.5-1.2,6.8-1.3,10.1-0.5c8.2-2.7,14.2,0,18,7.9c1.3,3.5,2.5,7.2,3.6,11.1c1,3.9,1.7,7.7,1.9,11.5
			c0.2,0.5,0.5,1.1,1.1,1.7c0.5,0.6,1,1.2,1.3,1.6c2.4,3.9,4.3,8.1,5.5,12.6c1.3,4.5,2.8,8.8,4.6,13c2.4,5.6,4.3,11.6,5.6,17.8
			c1.3,6.2-0.3,11.9-5,17.1c-4.1,3-8.1,4.4-12.1,4.2c-3.9-0.1-8.2-0.7-12.8-1.8c-4.3-1.1-7.4-3.2-9.4-6.3c-2-3.1-3.2-6.8-3.8-10.9
			c-1.5-1.9-2.6-3.8-3.4-5.9c-0.7-2.1-1.3-4.3-1.9-6.6c-0.9,1.5-2.6,3.6-5.2,6.2l-5.1,1.6c-3.8-0.3-7.1-0.9-9.7-1.9
			c-2.6-1-5-3.2-7.1-6.6c-1.1,4.6-2.3,9-3.8,13.2c-1.4,4.3-3.4,8.3-6,12.3C602.4,111.8,597.7,114.2,591.8,114.2z M602,26.3
			c-3.5,4.3-6,9.2-7.4,14.7c-1.4,5.5-2.8,10.9-4,16.3c-0.3,1.1-0.1,2.2,0.5,3.3c0.6,1.1,1.1,2.2,1.3,3.3c-0.9-0.3-1.9-0.8-3.1-1.5
			c-1.2-0.8-1.9-0.7-2.3,0.1c-5,10.2-8.2,20.9-9.5,32c-0.2,1.1,0.2,2.3,1.3,3.8c1,1.4,2.1,2,3.3,1.7c1.6-0.4,2.8-1.5,3.6-3.3
			c0.8-1.8,1.7-3.4,2.8-4.8c-0.4,1.4-1.2,2.9-2.2,4.5c-1,1.6-1.1,2.9-0.3,4c1,1.3,2.6,2.3,5,3c2.3,0.7,4,0.3,5.1-1
			c3-3.8,5.1-8.1,6.4-13c1.3-4.9,2.5-9.7,3.6-14.4c0.1-0.8-0.3-1.5-1.1-2.1c-0.8-0.6-1.4-1.2-1.9-1.9c1,0.1,2.1,0.4,3.2,0.8
			c1.2,0.4,2.1,0.4,2.7-0.3c1.6-1.6,2.7-3.7,3.4-6.2c0.6-2.5,1.5-4.8,2.7-6.8c0.5-1,1.3-1.9,2.3-2.8c1-0.8,2-1.7,2.9-2.6
			c-0.3,1.2-1,2.3-2.1,3.4c-1.2,1.1-1.7,2.3-1.6,3.7c0,2.1,0.8,4.3,2.4,6.5c1.6,2.2,3,4.1,4,5.7c0.6,1,1.4,2.4,2.3,4.2
			c0.9,1.8,2.9,2.7,5.9,2.5c1.6,0,3.6-2.9,6-8.8c2.4-5.9,5.3-8.9,8.7-9.2c1.2,0,2,1.7,2.6,5c0.5,3.4,1.4,6,2.7,8
			c1.6,2.5,2.5,5,2.6,7.5c0.1,2.5,1.2,4.8,3.3,7c0.4,0.5,1.2,0.6,2.1,0.1c1-0.4,1.9-0.9,2.7-1.5c-0.5,1.1-1.2,2.2-1.9,3.3
			c-0.8,1.1-1.1,2.2-1,3.3c0,1.2,0.4,2.6,1.1,4.3c0.8,1.7,1.7,2.7,2.8,3c2.7,0.7,6,1.3,9.8,1.9c3.8,0.5,6.2-0.5,7.1-3.1
			c1.5-4.5,1.1-9.1-1.3-14c-2.4-4.8-4.2-9.5-5.6-14.1c-1.1-3.2-2.1-6.5-3.2-9.9c-1.1-3.4-2.7-6.4-4.8-9c-0.7-0.8-1.7-0.7-3,0.2
			c-1.3,0.9-2.4,1.5-3.5,1.8c0.6-0.9,1.5-1.8,2.5-2.6c1-0.8,1.5-1.8,1.5-2.9c-0.3-3.6-0.9-7.6-1.9-11.9c-1-4.4-2.2-8.2-3.6-11.5
			c-0.4-0.8-1.3-1.1-2.6-1c-1.3,0.1-2.1,0.5-2.7,1.1c-1,1.1-1.4,2.3-1.1,3.6c0.2,1.3,0.3,2.7,0.3,4.2c-0.8-1.3-1.4-3.1-1.8-5.2
			c-0.4-2.1-1.3-3.2-2.6-3.2c-4.2,0-6.5,0.9-6.9,2.8c-0.4,1.8-1.4,5-3,9.5c-0.8,2.1-1.4,4.3-1.8,6.8c-0.4,2.5-1.4,4.4-3,5.8
			c-0.8,0.7-1.4,0.1-1.7-1.9c-0.4-2-1-3.2-2-3.4c-0.9-0.2-1.7,0.2-2.4,1.1c-0.7,0.9-1.5,1.7-2.3,2.2c0.3-1.1,0.8-2.3,1.5-3.6
			c0.7-1.3,0.9-2.4,0.5-3.2c-2.1-3-3.4-5.9-4-8.5c-0.6-2.6-1.7-4.5-3.2-5.8c-1.8-1.3-4.6-2.2-8.3-2.6S603.4,24.7,602,26.3z
			 M613,37.9c-1.5-2-3.2-1.9-5.2,0.1c-1.9,2-3.9,4.7-5.8,8c1.1-2.1,1.9-4.3,2.6-6.8c0.7-2.5,1.9-4.4,3.8-5.7
			c0.8-0.5,1.6-0.1,2.3,1.3C611.5,36.2,612.2,37.2,613,37.9z"/>
		<path class="st1" d="M682.8,98.8c-0.5-2.6-0.6-4.8-0.2-6.7c0.4-1.9,0.9-4.1,1.5-6.6c1-2.9,1.7-5.9,2.2-9.1
			c0.5-3.2,1.1-6.4,1.9-9.4c0-0.3,0.1-0.6,0.3-1.1c0.2-0.5,0.3-1,0.3-1.4c-0.4-3.3-0.4-6.5,0.1-9.6c0.5-3.1,1.1-6.2,1.7-9.5
			c0.5-4.8,2.6-9.4,6.1-13.6c3.5-4.3,7.1-7.9,10.8-10.9c3.8-3.5,8.1-6.2,12.9-8.2c4.8-2,9.9-2.2,15.2-0.7c2.2,0.6,5,1.8,8.4,3.6
			c3.4,1.7,5.6,3.6,6.8,5.7c2.3,1.3,4.4,3.4,6.3,6.4c1.9,3,3.4,5.7,4.4,8c1.1,2.7,2.1,5.4,3,8.2c0.9,2.8,1.8,5.5,2.7,8.1
			c2.4,7.5,4.8,15.4,7.2,23.8c2.4,8.3,2.8,16.5,1.1,24.4l-3.2,4.4c-3,2-5.8,3.2-8.2,3.6c-2.4,0.4-5.3,0.2-8.7-0.7
			c-2.9,1.4-6.2,1.6-10,0.5c-3.8-1.1-6.9-2.4-9.3-4c-3.8-4.1-5.8-9.5-5.8-16.2l-2.3,0.7l-1.1,0.1c0,5.7-0.5,11.4-1.5,16.9l-2.3,4.2
			l-3.5,3c-3.2,1.4-6.1,2.2-8.7,2.3c-2.6,0.1-5.5-0.3-8.7-1.1c-4.2-1.3-8.1-2.9-11.7-5C687,106.6,684.4,103.3,682.8,98.8z
			 M718.6,69.5l7.9,1.1l-8.2,2.6c0.3,2.2,1.2,3.7,2.7,4.3c2.5,1.2,5.1,1,7.7-0.5c2.6-1.5,5.3-1.9,7.9-1.4l8.2-1.7l-3.9,7.4
			c0.4,2.6,0.5,4.9,0.3,6.8c-0.1,2,0.3,4.3,1.4,6.8c0.3,0.9,1.8,1.7,4.5,2.3c2.7,0.6,4.4,0.5,5-0.3c0.9-1.1,1.2-2.4,0.9-4
			c-0.3-1.6-0.4-3.2-0.3-4.7c0.7,1.3,1.2,2.9,1.5,4.7c0.3,1.8,1.2,3,2.6,3.5c1.9,0.9,3.8,1.3,5.8,1.1c2-0.1,3.1-1.2,3.2-3.3
			c0.2-7.8-1-15.5-3.6-23.2c-2.6-7.7-5.1-15.2-7.4-22.8c-1.1-3.2-2.3-6.4-3.6-9.6c-1.3-3.2-3.2-5.9-5.6-8.1
			c-1.1-0.8-2.3-0.7-3.6,0.4s-2.6,1.8-3.9,2.1c0.6-0.9,1.6-1.9,3-3c1.3-1.1,1.6-2.1,0.8-3c-1.9-1.8-4.2-3.2-7-4.3
			c-2.8-1.1-5.5-1.4-8.1-1.1c-3.3,0.6-6.3,2.1-9.1,4.4c-2.7,2.3-5.3,4.6-7.7,6.8c-2,2-3.8,4.1-5.6,6.4c-1.8,2.3-2.8,4.8-3.1,7.5
			c-0.3,2.1-0.7,4.5-1.3,7c-0.6,2.6-0.8,4.4-0.5,5.6c-0.5,0.7-0.4,1.3,0.5,1.7c0.8,0.4,1.9,0.5,3.3,0.1c-1.1,2.3-1.8,3.2-2.1,2.7
			c-0.4-0.5-0.9,0.4-1.6,2.7c-0.9,2.8-1.6,5.6-2.2,8.5c-0.6,2.9-1.1,5.8-1.5,8.7c-0.4,2.3-1.1,4.9-2.3,7.7c-1.2,2.8-0.9,4.9,0.9,6.4
			c2.7,2.2,6.8,4.1,12.5,5.5c5.6,1.4,8.5,0.4,8.5-3.1c0.6-6.7,0.9-13,0.9-18.8c0-5.8-0.2-11.2-0.5-16.2c0-1.3-0.7-0.9-2.2,1.3
			c-1.5,2.2-2.6,3.8-3.4,4.8c0.8-1.8,1.8-3.6,3-5.5c1.2-1.9,2.2-3.8,2.9-5.6c0.8-2.4,1.3-4.5,1.6-6.1c0.3-1.7,1-3.6,2.3-6
			c0.5-1.2,1.4-2.1,2.7-3c1.3-0.8,2.5-1.6,3.6-2.4c0.9-0.7,1.9-1.4,3-2c1.1-0.6,2.1-1.3,3.2-2c-0.8,1.3-1.9,2.6-3.3,3.7
			c-1.4,1.1-1.9,2.3-1.4,3.7c1.3,0.3,3.3,1.8,5.9,4.6c2.6,2.8,4.3,5.5,5.1,8.1c1.2,0.3,2,0.5,2.4,0.8c0.4,0.3,1.5,0.6,3.1,1.1
			c-7.5,0.8-12.3,1.4-14.4,1.7c-2.1,0.4-2.9,0.6-2.6,0.7c0.3,0.1,1.1,0.1,2.3,0.1c1.2,0,1.4-0.1,0.5-0.1c-1.9,0.4-3.8,0.7-5.9,0.9
			c-2.1,0.2-3.6,1.1-4.6,2.8C719,67.9,718.7,68.7,718.6,69.5z M703.7,79.6c-0.4,2.4-0.7,4.8-0.9,7.1c-0.1,2.3,0.3,4.4,1.3,6.3
			c-0.5-0.5-1.2-1.1-2.1-1.6c-0.9-0.5-1.3-1.2-1.3-2c0-1.6,0.4-3.2,1.1-4.9C702.5,82.9,703.2,81.2,703.7,79.6z"/>
		<path class="st1" d="M790.4,113.4l-2.6,0.9l-4.4,0.9l-5.6-1.5l-4.2-3.1c-2.7-4.4-4-9-3.9-14c0.5-6.1,1.2-12.2,2-18.3
			c0.8-6.1,1.7-12.2,2.6-18.3c0.4-3,0.5-5.9,0.4-8.9c-0.1-3-0.3-6-0.5-9c-0.5-3.4-1-6.6-1.4-9.7c-0.4-3.1,0-6.3,1.1-9.7
			c1.6-3.9,4.3-6.7,7.9-8.3c3.7-1.6,7.6-1.7,11.7-0.4c2.9-0.5,6.1-1,9.7-1.3c3.6-0.3,6.9-0.3,9.9-0.1c9.2,1.3,14.5,6.5,15.7,15.7
			c0,3.8-0.8,7.5-2.3,11c-1.5,3.5-3,6.9-4.4,10.2c-0.7,2.4-1.4,4.7-2.1,6.9c-0.7,2.2-1.7,4.3-3,6.4l1.5,2.6l0.4,1.6
			c2.1-0.7,4.6-1.1,7.5-1c2.8,0,5.4,0.2,7.9,0.3l5,2.1l3.4,4c2,4.5,2.7,9.1,2.3,14c1.1,6.4-0.1,12.1-3.6,17.3c-3.5,5.1-8.5,8-15,8.7
			c-5.9-0.1-11.9-0.3-17.9-0.7C802.1,111.5,796.2,112,790.4,113.4z M789.8,24.3c-5.7-1.5-7.7,1.9-6,10.2c0.8,4.4,1.4,8.9,1.7,13.6
			c0.3,4.7,0.2,9.2-0.5,13.6c-1.1,6.2-2,12.2-2.7,18.2c-0.7,6-1.3,11.9-1.9,17.8c-0.2,1.6,0,3.3,0.7,5c0.6,1.7,1.9,2.1,3.8,1.3
			c6.3-2.3,12.9-3.3,19.9-2.9c7,0.4,14,0.6,20.9,0.6c1.5,0.1,3-0.4,4.4-1.6c1.4-1.2,2.5-2.5,3.3-3.9c0.5-1.1,0.9-2.6,1.1-4.7
			c0.2-2.1-0.3-3-1.5-3c-2.1,0.3-4.6,0.6-7.4,1c-2.8,0.4-5.4,0.6-7.9,0.6c2.4-0.9,5-1.7,7.8-2.3c2.8-0.6,5.2-1.4,7.4-2.4
			c1.3-0.5,1.7-2,1.3-4.4c-0.4-2.4-1.3-3.7-2.6-4c-3.9-0.5-7.9-0.2-11.7,0.9c-3.9,1.2-7.6,2.5-11.2,3.9c-2.2,0.9-4.2,2.3-6,4.1
			c-1.7,1.8-3.6,3.5-5.4,5c-0.6-2.7,0-4.7,1.7-5.9l1.5,1.5c1.3-2.4,2.9-4.8,4.7-7.2c1.8-2.4,3-4.9,3.5-7.7c0.3-1.4-0.2-2.8-1.5-4.1
			c-1.3-1.3-1.9-2.7-1.7-4.1c0.3-2.3,1.1-4.5,2.6-6.4c1.5-2,2.4-4.1,2.8-6.3c0.7-4,2.1-7.9,4.3-11.6c2.1-3.7,3.2-7,3.1-9.9
			c-0.3-4.4-2.9-6.4-7.9-5.9c-5,0.4-9.3,0.8-13,0.9c-0.5,0.1-1,0.4-1.3,0.9c-0.3,0.5-0.6,0.9-0.9,1.2c-1-0.3-1.9-0.6-2.8-1.1
			C791.5,24.9,790.6,24.6,789.8,24.3z M797.5,42.3c0,3,0.1,6.1,0.2,9.2c0.1,3.1,0.5,6.3,1.1,9.7c-1.5-0.4-2.6,0.2-3.4,1.6
			c0.9-2.4,1.4-5.5,1.5-9.4C797,49.6,797.2,45.9,797.5,42.3z"/>
		<path class="st1" d="M926.7,84.4c-2.9,9.2-7.9,16.3-15.1,21.2c-7.2,4.9-15.5,7.7-24.8,8.3l-5.4-1.2l-1.6-1.3
			c-3.6,2-7.8,2.4-12.6,1.2c-4.8-1.2-8.8-2.8-12.2-4.8c-2.2-1.2-5.5-3.4-9.7-6.6c-4.3-3.2-6.4-6.2-6.4-8.9c-3.8-4.7-4.8-10.5-3-17.3
			c1.6-3.2,4-6.4,7.2-9.4c3.2-3,6.5-5.4,9.9-7c-2.1-2-4.1-4.7-6.1-8.1c-2-3.4-3.6-6.6-4.6-9.3l-0.3-3.8l0.4-3.6v-0.1
			c-1.1-4.3-0.7-8.4,1.3-12.3c1.9-3.9,4.2-7.5,6.9-10.7c3-3.1,6.4-5.7,10.3-7.7c3.9-2,8.1-3,12.5-3l3.5,0.9c2-1,5.1-1.1,9.4-0.5
			c4.3,0.7,7.5,1.1,9.7,1.4c5.8,1.1,11.7,3.6,17.8,7.5c6,3.9,8.5,9.4,7.5,16.6c-0.7,3.1-2,6-3.8,8.5c-1.8,2.5-3.8,4.8-6,7l-0.3,0.1
			l2.3,1.7l2.7,4.3c3.8,2.7,6.5,6.4,8.3,11.1c1.8,4.7,2.9,9.3,3.4,13.7C927.9,76.4,927.5,80.4,926.7,84.4z M875,18
			c-0.3-1.1-0.4-2.3-0.5-3.6c0-1.3-0.5-2.3-1.3-3.2c-0.5-0.5-1.3-0.7-2.3-0.4c-1,0.3-1.9,0.5-2.6,0.8c-4.1,1.6-7.3,3.7-9.6,6.3
			c-2.3,2.6-4.1,5.5-5.4,8.7c-0.8,2.1-0.8,3.6-0.1,4.6c0.8,1,1.6,1.6,2.5,1.8c-1.2,0.9-2,2.1-2.6,3.5c-0.6,1.4-0.2,3,1.3,4.8
			c1.3,1.9,2.6,3.9,3.6,6.2c1.1,2.2,2.6,3.8,4.7,4.8c1.9,1,3.3,0.8,4.3-0.6c1-1.4,1.7-2.7,2.1-4c0.3,1.1,0.4,2.3,0.5,3.6
			c0,1.3,0.5,2.3,1.3,3.2c1.6,1.9,3.5,3.5,5.7,4.8c2.2,1.3,4.2,2.8,6.1,4.4c2.2,1.9,4.6,3.7,7,5.6c2.4,1.8,4.5,4,6.2,6.4
			c1.1,1.6,0.8,3.2-0.7,4.8c-1.5,1.6-2.9,3.2-4,4.8c0.8-1,1.1-1.8,0.7-2.5c-0.3-0.7-0.3-1.6-0.1-2.9c-0.6-0.4-1.1,0-1.4,1.3
			c-0.3,1.3-0.8,1.9-1.5,1.9c-3,0-5.7-0.3-8.3-0.8c-2.6-0.5-5.2-1.2-7.9-2c-3.2-0.9-5.2-3-5.8-6.4s-1.8-5.3-3.3-5.8
			c-3-1.1-6.1-0.3-9.1,2.4c-3,2.7-5.6,5.2-7.8,7.7c-0.9,1.1-1.1,2.5-0.7,4.2c0.4,1.7,1.2,3,2.1,4c0.6,0.6,1.5,0.7,2.6,0.1
			c1.1-0.6,2.1-1,3.1-1.1c-0.6,0.9-1.6,1.9-2.9,3c-1.3,1.1-1.5,2-0.6,2.7c3,2.9,6.5,5.5,10.3,7.8c3.8,2.3,7.9,3.6,12.1,3.8
			c2.1,0.2,3.8-1,5.1-3.6c1.3-2.6,2.7-4.7,4.3-6.4c0.9,1.8,1.6,4.1,2.1,6.8c0.5,2.7,1.7,4,3.5,3.8c4.8-0.3,9.8-1.7,14.8-4.4
			c5-2.7,8.7-6.2,11.1-10.5c3.1-5.6,4.2-11.5,3.3-17.5c-0.9-6-3-10.6-6.2-14c-0.7-0.7-1.8-0.9-3.3-0.7s-2.8,0.3-3.8,0.1
			c0.3-0.9,0.9-1.9,1.8-3c0.9-1.1,1-1.9,0.2-2.6c-3.8-3-8.1-5.1-13.1-6.3c-5-1.3-9.2-3.5-12.8-6.7c-1-0.8-1.1-2.2-0.3-4.2
			c0.8-2,1.8-3.1,3.2-3.2c3.3-0.3,6.7,1.1,10.1,4c3.4,3,6.5,3.4,9.2,1.2c1.8-1.3,4-3.6,6.5-6.7c2.6-3.1,3.3-5.6,2.3-7.4
			c-2.7-4.3-6.8-7-12.5-8.1c-5.6-1.1-11-1.9-16.1-2.4c-1.6-0.2-2.9,0.7-3.8,2.6C877.2,15.4,876.2,16.9,875,18z M897.6,61
			c0.4,0.2,0.4,0.6,0.1,1.2c-0.3,0.6-0.5,1.2-0.5,1.6c-0.4-1.6-2.1-2.6-4.8-2.8c0.8,0,1.7-0.1,2.6-0.3
			C895.9,60.5,896.7,60.6,897.6,61z"/>
	</g>
</g>
</svg>
